<svg width="14" height="14" viewBox="0 0 14 14" fill="none" xmlns="http://www.w3.org/2000/svg">
<g clip-path="url(#clip0_25_37)">
<path fill-rule="evenodd" clip-rule="evenodd" d="M0.307096 13.6929C0.503985 13.8895 0.770876 14 1.04915 14C1.32741 14 1.59431 13.8895 1.79119 13.6929L11.8999 3.58424V11.5508C11.8999 11.8293 12.0105 12.0963 12.2074 12.2933C12.4043 12.4902 12.6714 12.6008 12.9499 12.6008C13.2284 12.6008 13.4955 12.4902 13.6924 12.2933C13.8894 12.0963 14 11.8293 14 11.5508V1.05007C14 0.771574 13.8894 0.504484 13.6924 0.307558C13.4955 0.110632 13.2284 0 12.9499 0H2.44924C2.17074 0 1.90365 0.110632 1.70673 0.307558C1.5098 0.504484 1.39917 0.771574 1.39917 1.05007C1.39917 1.32856 1.5098 1.59565 1.70673 1.79258C1.90365 1.98951 2.17074 2.10014 2.44924 2.10014H10.4158L0.307096 12.2088C0.110452 12.4057 0 12.6726 0 12.9509C0 13.2291 0.110452 13.496 0.307096 13.6929Z" fill="white"/>
</g>
<defs>
<clipPath id="clip0_25_37">
<rect width="14" height="14" fill="white"/>
</clipPath>
</defs>
</svg>
