<svg width="80" height="66" viewBox="0 0 80 66" fill="none" xmlns="http://www.w3.org/2000/svg">
<path d="M49.1837 3.6123H30.8164L21.6327 14.6327H10.6123C8.66378 14.6327 6.79506 15.4067 5.41725 16.7846C4.03943 18.1624 3.26538 20.0311 3.26538 21.9796V55.0408C3.26538 56.9893 4.03943 58.858 5.41725 60.2358C6.79506 61.6137 8.66378 62.3877 10.6123 62.3877H69.3877C71.3362 62.3877 73.205 61.6137 74.5828 60.2358C75.9606 58.858 76.7346 56.9893 76.7346 55.0408V21.9796C76.7346 20.0311 75.9606 18.1624 74.5828 16.7846C73.205 15.4067 71.3362 14.6327 69.3877 14.6327H58.3673L49.1837 3.6123Z" stroke="white" stroke-width="7" stroke-linecap="round" stroke-linejoin="round"/>
<path d="M40.0001 47.6936C46.0865 47.6936 51.0205 42.7596 51.0205 36.6732C51.0205 30.5868 46.0865 25.6528 40.0001 25.6528C33.9137 25.6528 28.9797 30.5868 28.9797 36.6732C28.9797 42.7596 33.9137 47.6936 40.0001 47.6936Z" stroke="white" stroke-width="7" stroke-linecap="round" stroke-linejoin="round"/>
</svg>
