<svg width="80" height="69" viewBox="0 0 80 69" fill="none" xmlns="http://www.w3.org/2000/svg">
<path fill-rule="evenodd" clip-rule="evenodd" d="M76.004 60.4805C77.0236 60.4817 78.0043 60.8716 78.7458 61.5707C79.4872 62.2698 79.9334 63.2253 79.9931 64.2419C80.0529 65.2586 79.7217 66.2596 79.0673 67.0406C78.4128 67.8215 77.4845 68.3234 76.472 68.4437L76.004 68.4717H3.99601C2.97638 68.4705 1.99566 68.0806 1.25423 67.3815C0.512808 66.6824 0.066636 65.7269 0.0068809 64.7103C-0.0528742 63.6936 0.278298 62.6926 0.932731 61.9116C1.58717 61.1307 2.51546 60.6288 3.52796 60.5085L3.99601 60.4805H76.004ZM68.0031 0.54712C70.0216 0.546482 71.9658 1.3079 73.4459 2.67874C74.926 4.04958 75.8326 5.92852 75.984 7.93891L76.004 8.53824V48.4938C76.0046 50.5099 75.2423 52.4517 73.8698 53.93C72.4973 55.4083 70.616 56.3138 68.6032 56.465L68.0031 56.485H11.9969C9.97837 56.4856 8.03419 55.7242 6.5541 54.3533C5.07401 52.9825 4.1674 51.1036 4.01601 49.0932L3.99601 48.4938V8.53824C3.99537 6.52217 4.75772 4.58037 6.13024 3.10209C7.50275 1.62381 9.38399 0.718303 11.3968 0.567098L11.9969 0.54712H68.0031ZM68.0031 8.53824H11.9969V48.4938H68.0031V8.53824Z" fill="white"/>
</svg>
