<svg width="80" height="80" viewBox="0 0 80 80" fill="none" xmlns="http://www.w3.org/2000/svg">
<path d="M71.1111 0C73.4686 0 75.7295 0.936505 77.3965 2.60349C79.0635 4.27049 80 6.53141 80 8.88889V71.1111C80 73.4686 79.0635 75.7295 77.3965 77.3965C75.7295 79.0635 73.4686 80 71.1111 80H8.88889C6.53141 80 4.27049 79.0635 2.60349 77.3965C0.936505 75.7295 0 73.4686 0 71.1111V8.88889C0 6.53141 0.936505 4.27049 2.60349 2.60349C4.27049 0.936505 6.53141 0 8.88889 0H71.1111ZM68.8889 68.8889V45.3333C68.8889 41.4906 67.3624 37.8053 64.6452 35.0881C61.928 32.3709 58.2427 30.8444 54.4 30.8444C50.6222 30.8444 46.2222 33.1556 44.0889 36.6222V31.6889H31.6889V68.8889H44.0889V46.9778C44.0889 43.5556 46.8444 40.7556 50.2667 40.7556C51.9169 40.7556 53.4996 41.4111 54.6664 42.578C55.8333 43.7449 56.4889 45.3275 56.4889 46.9778V68.8889H68.8889ZM17.2444 24.7111C19.2247 24.7111 21.1239 23.9244 22.5242 22.5242C23.9244 21.1239 24.7111 19.2247 24.7111 17.2444C24.7111 13.1111 21.3778 9.73333 17.2444 9.73333C15.2524 9.73333 13.3419 10.5247 11.9333 11.9333C10.5247 13.3419 9.73333 15.2524 9.73333 17.2444C9.73333 21.3778 13.1111 24.7111 17.2444 24.7111ZM23.4222 68.8889V31.6889H11.1111V68.8889H23.4222Z" fill="white"/>
</svg>
